<?xml version="1.0" encoding="UTF-8"?>
<svg id="Capa_1" data-name="Capa 1" xmlns="http://www.w3.org/2000/svg" viewBox="0 0 160 160">
  <defs>
    <style>
      .cls-1 {
        fill: #f2f2f2;
      }

      .cls-2 {
        fill: #754c24;
      }
    </style>
  </defs>
  <rect x="44.7" y="94.33" width="92.27" height="12.15" rx="1.2" ry="1.2"/>
  <g>
    <path class="cls-2" d="M52.7,54.13l.19-1.61s-4.9.26-7.87.26-8.96-.26-8.96-.26l-.45,1.61c2.19.39,4.38,1.1,4.38,2.84,0,1.16-2.77,12.32-4.32,17.86-3.61,12.64-9.39,28.39-17.58,28.39-1.61,0-3.38-1.92-4.58-2.19-2.88-.65-4.68,1.93-3.87,3.68.6,1.29,2.19,2.77,4.9,2.77,6,0,20.74-10.59,23.32-19.04.97-3.1,2.13-7.8,3.8-13.8.97-3.48,4.64-16.38,5.55-17.8.97-1.55,3.42-2.32,5.48-2.71Z"/>
    <path class="cls-2" d="M80.88,88.76c0-1.29,2.77-12.64,3.68-16.06.9-3.42,3.93-14.38,4.96-15.93,1.03-1.55,3.55-2.39,5.61-2.71l.13-1.55s-5.03.26-8,.26-8.9-.26-8.9-.26l-.39,1.55c2.13.39,4.26,1.1,4.32,2.84.06,1.16-2.19,10.19-3.35,14.51h-17.28c1.16-4.32,3.74-13.15,4.64-14.57.97-1.55,3.55-2.39,5.55-2.71l.19-1.61s-5.67.26-8.64.26-8.25-.26-8.25-.26l-.45,1.61c2.19.39,4.38,1.1,4.38,2.84,0,1.29-2.77,12.32-3.68,15.73-.9,3.48-4.06,14.83-5.35,16.7-.77,1.16-3.16,1.81-5.22,2.19l-.13,1.55s4.97-.26,7.93-.26,8.9.26,8.9.26l.45-1.55c-2.19-.39-4.32-1.1-4.32-2.84,0-1.1,2.13-9.87,3.22-14.38h17.28c-1.23,4.51-3.8,13.41-4.9,15.02-.77,1.16-3.16,1.81-5.22,2.19l-.19,1.55s5.67-.26,8.64-.26,8.25.26,8.25.26l.45-1.55c-2.19-.39-4.32-1.1-4.32-2.84Z"/>
    <path class="cls-2" d="M143.62,52.52c-1.93.13-3.29.19-5.09.19s-3.1-.06-4.77-.19l-18.76,27.08-4.39-27.08c-1.87.13-3.93.19-5.87.19s-3.87-.06-5.93-.19l-.45,1.61c3.42.58,4.64,1.23,4.64,2.9,0,2.26-9.03,29.47-10.9,31.98-1.03,1.35-3.61,2.26-6.26,2.51l-.13,1.61c2.13-.13,4.9-.19,7.93-.19s5.55.06,8.19.19l.52-1.68c-1.55-.13-5.22-.58-5.22-2.51s6.32-20.38,8.64-26.76l4.51,27.21h2.13l19.15-27.6c-1.55,7.74-4.58,26.12-5.42,27.41-1.29,2-6.06,2.26-6.06,2.26l-.26,1.74c2.97-.26,6-.26,9.09-.26,2.9,0,5.35.13,8.06.19l.52-1.68s-4.51-.39-4.58-2.39c.19-2.39,1.35-9.54,2.45-16.57.77-5.29,2.13-12.96,2.58-14.96.58-2.71,3.16-3.1,6-3.42l-.32-1.61Z"/>
  </g>
  <g>
    <path class="cls-1" d="M55.98,98.42v.28h-4.14v2.26h3.76v.28h-3.76v2.53h-.33v-5.36h4.47Z"/>
    <path class="cls-1" d="M62.01,98.37c1.62,0,2.78.86,2.78,2.36v.74c0,1.53-1.16,2.36-2.78,2.36h-.26c-1.63,0-2.8-.83-2.8-2.36v-.74c0-1.5,1.17-2.36,2.8-2.36h.26ZM59.28,100.73v.74c0,1.34,1.01,2.07,2.46,2.07h.26c1.46,0,2.45-.73,2.45-2.07v-.74c0-1.31-1-2.07-2.45-2.07h-.26c-1.46,0-2.46.77-2.46,2.07Z"/>
    <path class="cls-1" d="M72.78,98.42v.28h-2.62v5.08h-.33v-5.08h-2.62v-.28h5.57Z"/>
    <path class="cls-1" d="M78.25,98.37c1.62,0,2.78.86,2.78,2.36v.74c0,1.53-1.16,2.36-2.78,2.36h-.26c-1.63,0-2.8-.83-2.8-2.36v-.74c0-1.5,1.17-2.36,2.8-2.36h.26ZM75.52,100.73v.74c0,1.34,1.01,2.07,2.46,2.07h.26c1.46,0,2.45-.73,2.45-2.07v-.74c0-1.31-1-2.07-2.45-2.07h-.26c-1.46,0-2.46.77-2.46,2.07Z"/>
    <path class="cls-1" d="M87.13,98.37c1.54,0,2.65.74,2.65,2.07v.13h-.33v-.13c0-1.15-.96-1.78-2.32-1.78h-.27c-1.37,0-2.34.63-2.34,2v.84c0,1.39.99,2.04,2.34,2.04h.27c1.34,0,2.34-.62,2.34-1.7v-.2h.34v2.14h-.28v-.87h-.22c-.44.59-1.26.92-2.23.92h-.26c-1.5,0-2.65-.74-2.65-2.33v-.84c0-1.56,1.14-2.29,2.68-2.29h.27Z"/>
    <path class="cls-1" d="M96.39,98.42c1.02,0,1.73.4,1.73,1.37v.3c0,.84-.54,1.25-1.37,1.34l1.66,2.35h-.38l-1.65-2.33h-2.74v2.33h-.33v-5.36h3.08ZM93.64,101.17h2.69c.85,0,1.45-.26,1.45-1.09v-.29c0-.82-.6-1.1-1.45-1.1h-2.69v2.48Z"/>
    <path class="cls-1" d="M104.43,98.42l2.75,5.36h-.34l-.94-1.81h-3.42l-.92,1.81h-.32l2.71-5.36h.48ZM102.61,101.69h3.15l-1.44-2.8h-.29l-1.42,2.8Z"/>
    <path class="cls-1" d="M114.83,98.42v.28h-4.14v2.26h3.76v.28h-3.76v2.53h-.33v-5.36h4.47Z"/>
    <path class="cls-1" d="M121.18,98.42v.28h-1.41v4.8h1.41v.28h-3.13v-.28h1.4v-4.8h-1.4v-.28h3.13ZM120.89,97.02l-1.09.84h-.32l1.05-.84h.37Z"/>
    <path class="cls-1" d="M127.42,98.42l2.75,5.36h-.34l-.94-1.81h-3.42l-.92,1.81h-.32l2.71-5.36h.48ZM125.6,101.69h3.15l-1.44-2.8h-.29l-1.42,2.8Z"/>
  </g>
</svg>